<svg xmlns="http://www.w3.org/2000/svg" width="544.902" height="131.6" viewBox="0 0 544.902 131.6"><g id="we-stream-landscape-blauw" transform="translate(-70.798 -124.2)"><g id="Laag_1_00000041287408503766918900000002036427819718458267_"><path id="Path_353" data-name="Path 353" d="M223.7,211.7V166.6h40.2v7.9H231.5v29.3H264v7.9Zm13.6-19.6v-6.6h25v6.6Z"></path><path id="Path_354" data-name="Path 354" d="M274.9,212.1a4.161,4.161,0,0,1-4.2-4.2,4.1,4.1,0,0,1,4.2-4.2,4.247,4.247,0,0,1,4.3,4.2A4.185,4.185,0,0,1,274.9,212.1Z"></path><path id="Path_355" data-name="Path 355" d="M287,211.6v-7.9h33.8c4.2,0,6.6-2.4,6.6-5.9,0-3.8-2.4-5.8-6.6-5.8H300.1c-8.5,0-13.8-5.4-13.8-12.8,0-7.3,4.9-12.6,13.9-12.6h32.4v7.9H300.2c-3.6,0-5.7,2.1-5.7,5.5s2.2,5.5,5.6,5.5h20.6c9.1,0,14,4.3,14,13,0,7.6-4.6,13.2-14,13.2Z" fill="#009fe3"></path><path id="Path_356" data-name="Path 356" d="M356,211.6V174.4H338.9v-7.9H381v7.9H363.9v37.2Z" fill="#009fe3"></path><path id="Path_357" data-name="Path 357" d="M428,211.6l-11.4-12.5H399.7v-6.9h18.8c5.6,0,8.6-3.2,8.6-9.1,0-5.8-3.2-8.7-8.6-8.7H394v37.2h-7.8V166.5h32.4c10.3,0,16.4,6.4,16.4,16.4,0,7.4-3.5,12.7-9.3,14.9l13.6,13.7Z" fill="#009fe3"></path><path id="Path_358" data-name="Path 358" d="M443.2,211.6V166.5h40.2v7.9H451v29.3h32.5v7.9ZM456.8,192v-6.6h25V192Z" fill="#009fe3"></path><path id="Path_359" data-name="Path 359" d="M537.3,211.5l-6.8-11.3H509.2l3.7-6.4h13.8l-10-16.9-20.4,34.6h-9l25.9-43.1a4.138,4.138,0,0,1,7.6,0l26,43.1Z" fill="#009fe3"></path><path id="Path_360" data-name="Path 360" d="M607.7,211.5l-8.6-31.7-12.8,29.3c-.9,1.9-2.1,3-4,3s-3.2-1.1-4-3l-12.7-29.3L557,211.5h-7.7l11.6-42.4c.6-2.2,1.8-3.2,3.9-3.2a4.259,4.259,0,0,1,4,2.7l13.9,31.9,13.9-31.9a4.052,4.052,0,0,1,3.8-2.7c1.9,0,3.2,1.1,3.8,3.2l11.5,42.4Z" fill="#009fe3"></path><path id="Path_361" data-name="Path 361" d="M159.1,166.5l8.6,31.7,12.8-29.3c.9-1.9,2.1-3,4-3s3.2,1.1,4,3l12.7,29.3,8.6-31.7h7.7L206,208.9c-.6,2.2-1.8,3.2-3.9,3.2a4.259,4.259,0,0,1-4-2.7l-13.9-31.9-13.9,31.9a4.052,4.052,0,0,1-3.8,2.7c-1.9,0-3.2-1.1-3.8-3.2l-11.5-42.4Z"></path><path id="Path_362" data-name="Path 362" d="M121.4,197.6a51.863,51.863,0,0,0,5.4-23.3,53.016,53.016,0,0,0-35.7-50.1l-4.9,10.5A41.295,41.295,0,0,1,110.4,193Z" fill="#00a0df"></path><path id="Path_363" data-name="Path 363" d="M99.4,188.1a27.886,27.886,0,0,0,3.4-13.5A28.412,28.412,0,0,0,81,147l-4.4,9.9c8.1,1.3,15.3,9.2,15.3,17.7a18.545,18.545,0,0,1-2.9,9.3Z" fill="#00a0df"></path><path id="Path_364" data-name="Path 364" d="M76.4,182.2A52.959,52.959,0,0,0,106,255.8l5-10.5a41.052,41.052,0,0,1-28.3-39.5,41.791,41.791,0,0,1,4.8-19Z" fill="#00a0df"></path><path id="Path_365" data-name="Path 365" d="M98.3,191.9a29.2,29.2,0,0,0-3.6,13.5,28.464,28.464,0,0,0,21.5,27.8l4.5-9.9c-8.1-1.4-15.2-9.3-15.2-17.8a18.641,18.641,0,0,1,3-9.3Z" fill="#00a0df"></path></g><circle id="Ellipse_243" data-name="Ellipse 243" cx="6" cy="6" r="6" transform="translate(114 201.3)" fill="#00a0df"></circle><circle id="Ellipse_244" data-name="Ellipse 244" cx="6" cy="6" r="6" transform="translate(72.2 166.8)" fill="#00a0df"></circle></g></svg>